{
  "accessors": [
    {
      "bufferView": 1,
      "componentType": 5126,
      "count": 5762,
      "max": [
        0.9158276319503784,
        1.0205223560333252,
        0.40001919865608215
      ],
      "min": [
        -0.9158276319503784,
        -1.0205223560333252,
        -0.40001919865608215
      ],
      "type": "VEC3"
    },
    {
      "bufferView": 1,
      "byteOffset": 69144,
      "componentType": 5126,
      "count": 5762,
      "max": [
        0.999308168888092,
        0.9999927282333374,
        0.9983820915222168
      ],
      "min": [
        -0.999308168888092,
        -0.9999848008155823,
        -0.9999600052833557
      ],
      "type": "VEC3"
    },
    {
      "bufferView": 0,
      "componentType": 5125,
      "count": 9360,
      "type": "SCALAR"
    }
  ],
  "asset": {
    "extras": {
      "author": "xNoel (https://sketchfab.com/xNoel)",
      "license": "CC-BY-4.0 (http://creativecommons.org/licenses/by/4.0/)",
      "source": "https://sketchfab.com/3d-models/chapeu-de-hacker-83dae4db4b5a420c80af49ff27d58487",
      "title": "Chapeu de hacker"
    },
    "generator": "Sketchfab-13.35.0",
    "version": "2.0"
  },
  "bufferViews": [
    {
      "buffer": 0,
      "byteLength": 37440,
      "name": "floatBufferViews",
      "target": 34963
    },
    {
      "buffer": 0,
      "byteLength": 138288,
      "byteOffset": 37440,
      "byteStride": 12,
      "name": "floatBufferViews",
      "target": 34962
    }
  ],
  "buffers": [
    {
      "byteLength": 175728,
      "uri": "scene.bin"
    }
  ],
  "materials": [
    {
      "doubleSided": true,
      "name": "material_0",
      "pbrMetallicRoughness": {
        "baseColorFactor": [
          0.0,
          1.0,
          0.0034381442945739657,
          1.0
        ],
        "metallicFactor": 0.0
      }
    }
  ],
  "meshes": [
    {
      "name": "Object_0",
      "primitives": [
        {
          "attributes": {
            "NORMAL": 1,
            "POSITION": 0
          },
          "indices": 2,
          "material": 0,
          "mode": 4
        }
      ]
    }
  ],
  "nodes": [
    {
      "children": [
        1
      ],
      "matrix": [
        1.7591077089309692,
        0.0,
        0.0,
        0.0,
        0.0,
        3.9060037625015403e-16,
        -1.7591077089309692,
        0.0,
        0.0,
        1.7591077089309692,
        3.9060037625015403e-16,
        0.0,
        0.0,
        0.0,
        0.0,
        1.0
      ],
      "name": "Sketchfab_model"
    },
    {
      "children": [
        2
      ],
      "name": "9569255856.obj.cleaner.materialmerger.gles"
    },
    {
      "mesh": 0,
      "name": "Object_2"
    }
  ],
  "scene": 0,
  "scenes": [
    {
      "name": "Sketchfab_Scene",
      "nodes": [
        0
      ]
    }
  ]
}
